<svg xmlns="http://www.w3.org/2000/svg" version="1.1" xmlns:xlink="http://www.w3.org/1999/xlink" xmlns:svgjs="http://svgjs.dev/svgjs" width="1500" height="1500" viewBox="0 0 1500 1500"><g transform="matrix(1,0,0,1,-1.1624875689904002,37.623225123641646)"><svg viewBox="0 0 247 247" data-background-color="#ffffff" preserveAspectRatio="xMidYMid meet" height="1500" width="1500" xmlns="http://www.w3.org/2000/svg" xmlns:xlink="http://www.w3.org/1999/xlink"><g id="tight-bounds" transform="matrix(1,0,0,1,0.1914229530270859,0.006214135389797093)"><svg viewBox="0 0 246.6171540939458 247.2" height="247.2" width="246.6171540939458"><g><svg viewBox="0 0 397.4975999999999 398.437031199251" height="247.2" width="246.6171540939458"><g><rect width="397.4975999999999" height="10.315199841247717" x="0" y="202.20422074961766" fill="#1b2141" opacity="1" stroke-width="0" stroke="transparent" fill-opacity="1" class="rect-yte-0" data-fill-palette-color="secondary" rx="1%" id="yte-0" data-palette-color="#1b2141"></rect></g><g transform="matrix(1,0,0,1,0.9887999999999693,239.52256153654002)"><svg viewBox="0 0 395.52 158.914469662711" height="158.914469662711" width="395.52"><g id="textblocktransform"><svg viewBox="0 0 395.52 158.914469662711" height="158.914469662711" width="395.52" id="textblock"><g><svg viewBox="0 0 395.52 114.38325346784362" height="114.38325346784362" width="395.52"><g transform="matrix(1,0,0,1,0,0)"><svg width="395.52" viewBox="2.4 -33.6 118.94 34.4" height="114.38325346784362" data-palette-color="#1b2141"><path d="M2.4-1.2L2.4-1.2Q2.4-1.5 2.8-1.73 3.2-1.95 3.73-2.13 4.25-2.3 4.8-2.45 5.35-2.6 5.6-2.75L5.6-2.75 5.6-30.15Q5.35-30.3 4.8-30.43 4.25-30.55 3.73-30.75 3.2-30.95 2.8-31.18 2.4-31.4 2.4-31.7L2.4-31.7Q2.4-32 2.58-32.45 2.75-32.9 3.35-32.9L3.35-32.9 7.8-32.9Q9.25-32.9 10.33-32.98 11.4-33.05 12.38-33.15 13.35-33.25 14.38-33.33 15.4-33.4 16.8-33.4L16.8-33.4Q18.6-33.4 20.33-32.88 22.05-32.35 23.43-31.2 24.8-30.05 25.65-28.28 26.5-26.5 26.5-24L26.5-24Q26.5-20.7 25.48-18.32 24.45-15.95 22.55-14.4 20.65-12.85 18.03-12.13 15.4-11.4 12.15-11.4L12.15-11.4Q11.9-11.4 11.3-11.4 10.7-11.4 10-11.45L10-11.45 10-3.7Q10-2.95 10.65-2.68 11.3-2.4 12.08-2.27 12.85-2.15 13.5-1.95 14.15-1.75 14.15-1.1L14.15-1.1Q14.15-0.85 13.75-0.43 13.35 0 12.45 0L12.45 0 3.35 0Q2.75 0 2.58-0.45 2.4-0.9 2.4-1.2ZM10-30.45L10-13.95Q10.65-13.85 11.33-13.78 12-13.7 12.85-13.7L12.85-13.7Q17.1-13.7 19.55-16.07 22-18.45 22-23.55L22-23.55Q22-25.6 21.43-26.95 20.85-28.3 19.7-29.13 18.55-29.95 16.88-30.28 15.2-30.6 13-30.6L13-30.6Q11.5-30.6 10-30.45L10-30.45ZM29.9-1.2L29.9-1.2Q29.9-1.5 30.3-1.73 30.7-1.95 31.22-2.13 31.75-2.3 32.3-2.45 32.85-2.6 33.1-2.75L33.1-2.75 33.1-30.15Q32.85-30.3 32.3-30.43 31.75-30.55 31.22-30.75 30.7-30.95 30.3-31.18 29.9-31.4 29.9-31.7L29.9-31.7Q29.9-32 30.07-32.45 30.25-32.9 30.85-32.9L30.85-32.9 46.95-32.9Q47.8-32.9 48.57-32.88 49.35-32.85 49.95-32.7 50.55-32.55 50.92-32.25 51.3-31.95 51.3-31.4L51.3-31.4Q51.3-30.8 51.15-29.63 51-28.45 50.77-27.3 50.55-26.15 50.22-25.28 49.9-24.4 49.5-24.4L49.5-24.4Q48.8-24.4 48.45-25.38 48.1-26.35 47.75-27.53 47.4-28.7 46.85-29.68 46.3-30.65 45.2-30.65L45.2-30.65 37.55-30.65 37.55-17.85 47.1-18.2Q47.95-18.15 47.95-17.6L47.95-17.6Q47.95-17.3 47.8-16.82 47.65-16.35 47.4-15.9 47.15-15.45 46.85-15.1 46.55-14.75 46.2-14.7L46.2-14.7 37.55-15.15 37.55-2.85Q38.15-2.7 39.12-2.63 40.1-2.55 41.07-2.4 42.05-2.25 42.75-1.98 43.45-1.7 43.45-1.2L43.45-1.2Q43.45-0.95 43.22-0.48 43 0 42.45 0L42.45 0 30.85 0Q30.25 0 30.07-0.45 29.9-0.9 29.9-1.2ZM53.6-0.6L53.6-0.6Q53.6-0.85 53.62-1.05 53.65-1.25 53.92-1.45 54.2-1.65 54.77-1.83 55.35-2 56.4-2.15L56.4-2.15 60.8-30.25 60.75-30.25Q60.35-30.3 59.42-30.65 58.5-31 57.95-31L57.95-31Q57.4-31 57.1-31.3 56.8-31.6 56.8-32L56.8-32Q56.8-32.35 57.07-32.63 57.35-32.9 57.95-32.9L57.95-32.9 62.5-32.9Q62.55-32.85 63.05-32.85L63.05-32.85Q63.45-32.85 63.95-32.88 64.45-32.9 64.9-32.9L64.9-32.9Q65.84-32.9 66.05-32.8L66.05-32.8 73.45-11.3 74.84-4.95Q76.75-11.5 78.07-16.03 79.4-20.55 80.27-23.55 81.15-26.55 81.67-28.23 82.2-29.9 82.47-30.73 82.75-31.55 82.84-31.78 82.95-32 82.95-32.05L82.95-32.05Q83.05-32.45 83.32-32.68 83.59-32.9 84.25-32.9L84.25-32.9 91.34-32.9Q92.3-32.9 92.3-31.8L92.3-31.8Q92.3-31.55 91.9-31.35 91.5-31.15 90.9-30.98 90.3-30.8 89.62-30.65 88.95-30.5 88.4-30.3L88.4-30.3 93.34-2.25Q94.95-2.1 95.82-1.78 96.7-1.45 96.7-0.55L96.7-0.55Q96.7-0.3 96.32-0.15 95.95 0 95.05 0L95.05 0 86.55 0Q85.84 0 85.67-0.18 85.5-0.35 85.5-0.6L85.5-0.6Q85.5-1.3 86.3-1.6 87.09-1.9 88.65-2.15L88.65-2.15 84.9-29.25 76.3-1.3Q76.3-0.8 75.97-0.55 75.65-0.3 75.17-0.18 74.7-0.05 74.15-0.03 73.59 0 73.15 0L73.15 0 65.65-20.35 63.45-28.05Q63.35-28.45 63.25-28.8 63.15-29.15 63-29.45L63-29.45 59.95-2.25Q61.65-2.1 62.67-1.78 63.7-1.45 63.7-0.55L63.7-0.55Q63.7-0.3 63.37-0.15 63.05 0 62.2 0L62.2 0 54.5 0Q53.9 0 53.75-0.18 53.6-0.35 53.6-0.6ZM100.64-1.65L100.64-1.65Q100.44-1.75 100.44-2.4L100.44-2.4Q100.44-2.5 100.47-3.2 100.49-3.9 100.54-4.88 100.59-5.85 100.64-6.88 100.69-7.9 100.69-8.55L100.69-8.55Q100.69-9 100.99-9.2 101.29-9.4 101.64-9.4L101.64-9.4Q101.94-9.4 102.22-8.8 102.49-8.2 102.74-7.5L102.74-7.5Q102.99-6.65 103.19-5.6L103.19-5.6Q103.59-4.25 105.72-3.25 107.84-2.25 111.74-2.25L111.74-2.25Q112.84-2.25 113.89-2.65 114.94-3.05 115.77-3.73 116.59-4.4 117.09-5.28 117.59-6.15 117.59-7.1L117.59-7.1Q117.59-9.65 116.34-11.08 115.09-12.5 113.22-13.4 111.34-14.3 109.17-14.98 106.99-15.65 105.12-16.73 103.24-17.8 101.99-19.58 100.74-21.35 100.74-24.5L100.74-24.5Q100.74-26.55 101.69-28.23 102.64-29.9 104.22-31.1 105.79-32.3 107.89-32.95 109.99-33.6 112.24-33.6L112.24-33.6Q113.49-33.6 114.82-33.27 116.14-32.95 117.24-32.38 118.34-31.8 119.04-31.1 119.74-30.4 119.74-29.65L119.74-29.65Q119.74-29.1 119.74-28.18 119.74-27.25 119.67-26.35 119.59-25.45 119.34-24.8 119.09-24.15 118.59-24.15L118.59-24.15Q118.29-24.15 118.02-24.7 117.74-25.25 117.54-25.9L117.54-25.9Q117.29-26.65 117.09-27.65L117.09-27.65Q116.24-29.05 114.49-29.88 112.74-30.7 109.94-30.7L109.94-30.7Q108.84-30.7 107.84-30.4 106.84-30.1 106.04-29.5 105.24-28.9 104.77-28.03 104.29-27.15 104.29-26L104.29-26Q104.29-23.75 105.57-22.48 106.84-21.2 108.72-20.33 110.59-19.45 112.82-18.7 115.04-17.95 116.92-16.8 118.79-15.65 120.07-13.83 121.34-12 121.34-8.95L121.34-8.95Q121.34-6.9 120.34-5.13 119.34-3.35 117.72-2.02 116.09-0.7 113.97 0.05 111.84 0.8 109.59 0.8L109.59 0.8Q108.54 0.8 107.22 0.6 105.89 0.4 104.62 0.05 103.34-0.3 102.27-0.75 101.19-1.2 100.64-1.65Z" opacity="1" transform="matrix(1,0,0,1,0,0)" fill="#1b2141" class="wordmark-text-0" data-fill-palette-color="primary" id="text-0"></path></svg></g></svg></g><g transform="matrix(1,0,0,1,0,141.38639441351827)"><svg viewBox="0 0 395.52 17.528075249192753" height="17.528075249192753" width="395.52"><g transform="matrix(1,0,0,1,0,0)"><svg width="395.52" viewBox="3.05 -36.85 1071.2 47.35" height="17.528075249192753" data-palette-color="#1b2141"><path d="M20.4-27Q25.75-27 28.65-23.5 31.55-20 31.55-13.15L31.55-13.15Q31.55-6.35 28.65-2.88 25.75 0.6 20.4 0.6L20.4 0.6Q15.8 0.6 13-2.4L13-2.4 13 9.85 3.05 9.85 3.05-26.4 11.15-26.4 12-22.65Q14.9-27 20.4-27L20.4-27ZM17.3-19.65Q15.1-19.65 14-18.1 12.9-16.55 12.9-14.05L12.9-14.05 12.9-12.4Q12.9-9.9 14-8.33 15.1-6.75 17.3-6.75L17.3-6.75Q21.6-6.75 21.6-11.9L21.6-11.9 21.6-14.55Q21.6-19.65 17.3-19.65L17.3-19.65ZM50-27Q57.25-27 61.08-23.6 64.9-20.2 64.9-13.2L64.9-13.2 64.9-11.5 45.1-11.5Q45.1-8.65 46.38-7.2 47.65-5.75 50.4-5.75L50.4-5.75Q52.9-5.75 54.08-6.8 55.25-7.85 55.25-9.6L55.25-9.6 64.9-9.6Q64.9-4.8 61.25-2.1 57.6 0.6 50.6 0.6L50.6 0.6Q43.25 0.6 39.2-2.83 35.15-6.25 35.15-13.2L35.15-13.2Q35.15-20 39.1-23.5 43.05-27 50-27L50-27ZM50.4-20.65Q45.7-20.65 45.15-16.2L45.15-16.2 54.85-16.2Q54.85-18.25 53.68-19.45 52.5-20.65 50.4-20.65L50.4-20.65ZM85.75-27.05Q86.9-27.05 87.8-26.78 88.7-26.5 88.7-26.45L88.7-26.45 88.7-18.1 85.5-18.1Q82.4-18.1 81.03-16.5 79.65-14.9 79.65-11.75L79.65-11.75 79.65 0 69.7 0 69.7-26.4 77.85-26.4 78.5-22.4Q79.4-24.7 81.35-25.88 83.3-27.05 85.75-27.05L85.75-27.05ZM105.7-27Q111-27 114.68-24.93 118.35-22.85 118.35-18.5L118.35-18.5 109.1-18.5Q109.1-19.95 107.8-20.55L107.8-20.55Q106.9-21.05 105.55-21.05L105.55-21.05Q101.95-21.05 101.95-19.35L101.95-19.35Q101.95-18.4 103.2-18 104.45-17.6 107.3-17.15L107.3-17.15Q110.8-16.65 113.15-15.98 115.5-15.3 117.25-13.58 119-11.85 119-8.75L119-8.75Q119-3.7 115.23-1.55 111.45 0.6 105.35 0.6L105.35 0.6Q101.85 0.6 98.75-0.38 95.65-1.35 93.7-3.4 91.75-5.45 91.75-8.6L91.75-8.6 101-8.6 101-8.4Q101.05-6.7 102.43-6.03 103.8-5.35 105.35-5.35L105.35-5.35Q109.5-5.35 109.5-7.3L109.5-7.3Q109.5-8.3 108.2-8.75 106.9-9.2 103.95-9.7L103.95-9.7Q100.4-10.3 98.13-11 95.85-11.7 94.15-13.38 92.45-15.05 92.45-18.05L92.45-18.05Q92.45-22.9 96.13-24.95 99.8-27 105.7-27L105.7-27ZM137.35-27Q144.3-27 148.28-23.48 152.25-19.95 152.25-13.2L152.25-13.2Q152.25-6.45 148.28-2.93 144.3 0.6 137.35 0.6L137.35 0.6Q130.4 0.6 126.45-2.9 122.5-6.4 122.5-13.2L122.5-13.2Q122.5-20 126.45-23.5 130.4-27 137.35-27L137.35-27ZM137.35-20.25Q132.45-20.25 132.45-14.6L132.45-14.6 132.45-11.75Q132.45-6.15 137.35-6.15L137.35-6.15Q142.3-6.15 142.3-11.75L142.3-11.75 142.3-14.6Q142.3-20.25 137.35-20.25L137.35-20.25ZM175.25-27Q179.85-27 182.15-24.45 184.45-21.9 184.45-17.1L184.45-17.1 184.45 0 174.5 0 174.5-15.9Q174.5-17.6 173.63-18.63 172.75-19.65 171.15-19.65L171.15-19.65Q169.3-19.65 168.15-18.45 167-17.25 167-15.5L167-15.5 167 0 157.05 0 157.05-26.4 165.2-26.4 165.85-22.4Q167.4-24.5 169.93-25.75 172.45-27 175.25-27L175.25-27ZM203.45-27Q209.5-27 213.3-24.98 217.1-22.95 217.1-18.4L217.1-18.4 217.1-8.1Q217.1-7.25 217.5-6.7 217.9-6.15 218.7-6.15L218.7-6.15 220.5-6.15 220.5-0.4Q220.35-0.3 219.73-0.08 219.1 0.15 217.95 0.38 216.8 0.6 215.3 0.6L215.3 0.6Q212.4 0.6 210.53-0.28 208.65-1.15 207.95-2.7L207.95-2.7Q206.05-1.2 203.7-0.3 201.35 0.6 198.2 0.6L198.2 0.6Q188.9 0.6 188.9-6.8L188.9-6.8Q188.9-10.65 190.97-12.68 193.05-14.7 196.95-15.45 200.85-16.2 207.15-16.2L207.15-16.2 207.15-17.5Q207.15-19.05 206.08-19.85 205-20.65 203.3-20.65L203.3-20.65Q201.75-20.65 200.63-20.1 199.5-19.55 199.5-18.35L199.5-18.35 199.5-18.15 189.7-18.15Q189.65-18.4 189.65-18.85L189.65-18.85Q189.65-22.6 193.22-24.8 196.8-27 203.45-27L203.45-27ZM207.15-11.5Q202.9-11.5 200.88-10.58 198.85-9.65 198.85-8.1L198.85-8.1Q198.85-5.6 202.25-5.6L202.25-5.6Q204.2-5.6 205.68-6.65 207.15-7.7 207.15-9.25L207.15-9.25 207.15-11.5ZM234.05 0L224.1 0 224.1-36.25 234.05-36.25 234.05 0ZM267.8-36.85Q268.9-36.85 270.55-36.58 272.2-36.3 273.2-35.95L273.2-35.95 273.2-30.1 270.9-30.1Q269.3-30.1 268.7-29.5 268.1-28.9 268.1-27.45L268.1-27.45 268.1-26.4 273.2-26.4 273.2-19.65 268.1-19.65 268.1 0 258.15 0 258.15-19.65 254.45-19.65 254.45-26.4 258.15-26.4 258.15-27.5Q258.15-32.6 260.65-34.73 263.15-36.85 267.8-36.85L267.8-36.85ZM286.8-29.5L276.85-29.5 276.85-36.25 286.8-36.25 286.8-29.5ZM286.8 0L276.85 0 276.85-26.4 286.8-26.4 286.8 0ZM311.35-27Q315.95-27 318.25-24.45 320.55-21.9 320.55-17.1L320.55-17.1 320.55 0 310.6 0 310.6-15.9Q310.6-17.6 309.72-18.63 308.85-19.65 307.25-19.65L307.25-19.65Q305.4-19.65 304.25-18.45 303.1-17.25 303.1-15.5L303.1-15.5 303.1 0 293.15 0 293.15-26.4 301.3-26.4 301.95-22.4Q303.5-24.5 306.02-25.75 308.55-27 311.35-27L311.35-27ZM339.55-27Q345.6-27 349.4-24.98 353.2-22.95 353.2-18.4L353.2-18.4 353.2-8.1Q353.2-7.25 353.6-6.7 354-6.15 354.8-6.15L354.8-6.15 356.6-6.15 356.6-0.4Q356.45-0.3 355.82-0.08 355.2 0.15 354.05 0.38 352.9 0.6 351.4 0.6L351.4 0.6Q348.5 0.6 346.63-0.28 344.75-1.15 344.05-2.7L344.05-2.7Q342.15-1.2 339.8-0.3 337.45 0.6 334.3 0.6L334.3 0.6Q325 0.6 325-6.8L325-6.8Q325-10.65 327.07-12.68 329.15-14.7 333.05-15.45 336.95-16.2 343.25-16.2L343.25-16.2 343.25-17.5Q343.25-19.05 342.18-19.85 341.1-20.65 339.4-20.65L339.4-20.65Q337.85-20.65 336.73-20.1 335.6-19.55 335.6-18.35L335.6-18.35 335.6-18.15 325.8-18.15Q325.75-18.4 325.75-18.85L325.75-18.85Q325.75-22.6 329.32-24.8 332.9-27 339.55-27L339.55-27ZM343.25-11.5Q339-11.5 336.98-10.58 334.95-9.65 334.95-8.1L334.95-8.1Q334.95-5.6 338.35-5.6L338.35-5.6Q340.3-5.6 341.77-6.65 343.25-7.7 343.25-9.25L343.25-9.25 343.25-11.5ZM373.5-27Q380-27 384.03-24.23 388.05-21.45 388.05-15.75L388.05-15.75 378.4-15.75Q378.4-20.25 373.5-20.25L373.5-20.25Q368.6-20.25 368.6-14.6L368.6-14.6 368.6-11.75Q368.6-6.15 373.7-6.15L373.7-6.15Q378.8-6.15 378.8-10.75L378.8-10.75 388.05-10.75Q388.05-5 384.03-2.2 380 0.6 373.5 0.6L373.5 0.6Q366.55 0.6 362.6-2.9 358.65-6.4 358.65-13.2L358.65-13.2Q358.65-20 362.6-23.5 366.55-27 373.5-27L373.5-27ZM411.4-27Q416-27 418.3-24.45 420.6-21.9 420.6-17.1L420.6-17.1 420.6 0 410.65 0 410.65-15.9Q410.65-17.6 409.78-18.63 408.9-19.65 407.3-19.65L407.3-19.65Q405.45-19.65 404.3-18.45 403.15-17.25 403.15-15.5L403.15-15.5 403.15 0 393.2 0 393.2-26.4 401.35-26.4 402-22.4Q403.55-24.5 406.08-25.75 408.6-27 411.4-27L411.4-27ZM440.2-27Q446.7-27 450.73-24.23 454.75-21.45 454.75-15.75L454.75-15.75 445.1-15.75Q445.1-20.25 440.2-20.25L440.2-20.25Q435.3-20.25 435.3-14.6L435.3-14.6 435.3-11.75Q435.3-6.15 440.4-6.15L440.4-6.15Q445.5-6.15 445.5-10.75L445.5-10.75 454.75-10.75Q454.75-5 450.73-2.2 446.7 0.6 440.2 0.6L440.2 0.6Q433.25 0.6 429.3-2.9 425.35-6.4 425.35-13.2L425.35-13.2Q425.35-20 429.3-23.5 433.25-27 440.2-27L440.2-27ZM473.55-27Q480.8-27 484.63-23.6 488.45-20.2 488.45-13.2L488.45-13.2 488.45-11.5 468.65-11.5Q468.65-8.65 469.93-7.2 471.2-5.75 473.95-5.75L473.95-5.75Q476.45-5.75 477.63-6.8 478.8-7.85 478.8-9.6L478.8-9.6 488.45-9.6Q488.45-4.8 484.8-2.1 481.15 0.6 474.15 0.6L474.15 0.6Q466.8 0.6 462.75-2.83 458.7-6.25 458.7-13.2L458.7-13.2Q458.7-20 462.65-23.5 466.6-27 473.55-27L473.55-27ZM473.95-20.65Q469.25-20.65 468.7-16.2L468.7-16.2 478.4-16.2Q478.4-18.25 477.23-19.45 476.05-20.65 473.95-20.65L473.95-20.65ZM544.95-27Q549.45-27 551.7-24.43 553.95-21.85 553.95-17.1L553.95-17.1 553.95 0 544 0 544-15.9Q544-17.6 543.18-18.63 542.35-19.65 540.85-19.65L540.85-19.65Q539.1-19.65 538-18.45 536.9-17.25 536.9-15.5L536.9-15.5 536.9 0 526.95 0 526.95-15.9Q526.95-17.6 526.13-18.63 525.3-19.65 523.8-19.65L523.8-19.65Q522.05-19.65 520.95-18.45 519.85-17.25 519.85-15.5L519.85-15.5 519.85 0 509.9 0 509.9-26.4 518.05-26.4 518.7-22.45Q520.2-24.55 522.68-25.78 525.15-27 527.9-27L527.9-27Q533.85-27 535.9-22.45L535.9-22.45Q537.45-24.55 539.88-25.78 542.3-27 544.95-27L544.95-27ZM572.95-27Q579-27 582.8-24.98 586.6-22.95 586.6-18.4L586.6-18.4 586.6-8.1Q586.6-7.25 587-6.7 587.4-6.15 588.2-6.15L588.2-6.15 590-6.15 590-0.4Q589.85-0.3 589.23-0.08 588.6 0.15 587.45 0.38 586.3 0.6 584.8 0.6L584.8 0.6Q581.9 0.6 580.03-0.28 578.15-1.15 577.45-2.7L577.45-2.7Q575.55-1.2 573.2-0.3 570.85 0.6 567.7 0.6L567.7 0.6Q558.4 0.6 558.4-6.8L558.4-6.8Q558.4-10.65 560.48-12.68 562.55-14.7 566.45-15.45 570.35-16.2 576.65-16.2L576.65-16.2 576.65-17.5Q576.65-19.05 575.58-19.85 574.5-20.65 572.8-20.65L572.8-20.65Q571.25-20.65 570.13-20.1 569-19.55 569-18.35L569-18.35 569-18.15 559.2-18.15Q559.15-18.4 559.15-18.85L559.15-18.85Q559.15-22.6 562.73-24.8 566.3-27 572.95-27L572.95-27ZM576.65-11.5Q572.4-11.5 570.38-10.58 568.35-9.65 568.35-8.1L568.35-8.1Q568.35-5.6 571.75-5.6L571.75-5.6Q573.7-5.6 575.18-6.65 576.65-7.7 576.65-9.25L576.65-9.25 576.65-11.5ZM611.45-27Q616.05-27 618.35-24.45 620.65-21.9 620.65-17.1L620.65-17.1 620.65 0 610.7 0 610.7-15.9Q610.7-17.6 609.83-18.63 608.95-19.65 607.35-19.65L607.35-19.65Q605.5-19.65 604.35-18.45 603.2-17.25 603.2-15.5L603.2-15.5 603.2 0 593.25 0 593.25-26.4 601.4-26.4 602.05-22.4Q603.6-24.5 606.13-25.75 608.65-27 611.45-27L611.45-27ZM639.65-27Q645.7-27 649.5-24.98 653.3-22.95 653.3-18.4L653.3-18.4 653.3-8.1Q653.3-7.25 653.7-6.7 654.1-6.15 654.9-6.15L654.9-6.15 656.7-6.15 656.7-0.4Q656.55-0.3 655.93-0.08 655.3 0.15 654.15 0.38 653 0.6 651.5 0.6L651.5 0.6Q648.6 0.6 646.73-0.28 644.85-1.15 644.15-2.7L644.15-2.7Q642.25-1.2 639.9-0.3 637.55 0.6 634.4 0.6L634.4 0.6Q625.1 0.6 625.1-6.8L625.1-6.8Q625.1-10.65 627.18-12.68 629.25-14.7 633.15-15.45 637.05-16.2 643.35-16.2L643.35-16.2 643.35-17.5Q643.35-19.05 642.28-19.85 641.2-20.65 639.5-20.65L639.5-20.65Q637.95-20.65 636.83-20.1 635.7-19.55 635.7-18.35L635.7-18.35 635.7-18.15 625.9-18.15Q625.85-18.4 625.85-18.85L625.85-18.85Q625.85-22.6 629.43-24.8 633-27 639.65-27L639.65-27ZM643.35-11.5Q639.1-11.5 637.08-10.58 635.05-9.65 635.05-8.1L635.05-8.1Q635.05-5.6 638.45-5.6L638.45-5.6Q640.4-5.6 641.88-6.65 643.35-7.7 643.35-9.25L643.35-9.25 643.35-11.5ZM690.45-31.35Q690.45-28.3 688.93-26.65 687.4-25 684.35-24.2L684.35-24.2Q685.8-23.1 686.63-21.63 687.45-20.15 687.45-18.5L687.45-18.5Q687.45-14.3 684.28-12.15 681.1-10 676.35-10L676.35-10 672.55-10Q669.4-10 669.4-8.55L669.4-8.55Q669.4-7.85 670.1-7.43 670.8-7 672.55-7L672.55-7 681.55-7Q685.95-7 688.2-4.7 690.45-2.4 690.45 1.45L690.45 1.45Q690.45 4.3 688.95 6.35 687.45 8.4 684.9 9.45 682.35 10.5 679.35 10.5L679.35 10.5 664.65 10.5Q662.85 10.5 661.33 9.65 659.8 8.8 658.9 7.33 658 5.85 658 4.05L658 4.05Q658 2.1 659.2 0.53 660.4-1.05 662.2-1.85L662.2-1.85Q661-2.7 660.3-3.9 659.6-5.1 659.6-6.5L659.6-6.5Q659.6-8.45 661.05-10.03 662.5-11.6 664.65-12.15L664.65-12.15Q662.7-13.4 661.55-15.03 660.4-16.65 660.4-18.45L660.4-18.45Q660.4-23.05 664.13-25.03 667.85-27 674-27L674-27Q676.7-27 678.35-26.7L678.35-26.7Q680.8-28.25 681.53-29.53 682.25-30.8 682.25-31.35L682.25-31.35 690.45-31.35ZM673.9-21.8Q672.25-21.8 671.2-20.95 670.15-20.1 670.15-18.5L670.15-18.5Q670.15-16.85 671.13-16.03 672.1-15.2 673.9-15.2L673.9-15.2Q675.7-15.2 676.73-16.03 677.75-16.85 677.75-18.5L677.75-18.5Q677.75-20.15 676.73-20.98 675.7-21.8 673.9-21.8L673.9-21.8ZM670.05 0Q668.9 0 668.18 0.63 667.45 1.25 667.45 2.4L667.45 2.4Q667.45 3.55 668.2 4.25 668.95 4.95 670.05 4.95L670.05 4.95 677.85 4.95Q678.95 4.95 679.73 4.28 680.5 3.6 680.5 2.45L680.5 2.45Q680.5 1.3 679.75 0.65 679 0 677.85 0L677.85 0 670.05 0ZM707.75-27Q715-27 718.83-23.6 722.65-20.2 722.65-13.2L722.65-13.2 722.65-11.5 702.85-11.5Q702.85-8.65 704.13-7.2 705.4-5.75 708.15-5.75L708.15-5.75Q710.65-5.75 711.83-6.8 713-7.85 713-9.6L713-9.6 722.65-9.6Q722.65-4.8 719-2.1 715.35 0.6 708.35 0.6L708.35 0.6Q701 0.6 696.95-2.83 692.9-6.25 692.9-13.2L692.9-13.2Q692.9-20 696.85-23.5 700.8-27 707.75-27L707.75-27ZM708.15-20.65Q703.45-20.65 702.9-16.2L702.9-16.2 712.6-16.2Q712.6-18.25 711.43-19.45 710.25-20.65 708.15-20.65L708.15-20.65ZM762.5-27Q767-27 769.25-24.43 771.5-21.85 771.5-17.1L771.5-17.1 771.5 0 761.55 0 761.55-15.9Q761.55-17.6 760.73-18.63 759.9-19.65 758.4-19.65L758.4-19.65Q756.65-19.65 755.55-18.45 754.45-17.25 754.45-15.5L754.45-15.5 754.45 0 744.5 0 744.5-15.9Q744.5-17.6 743.68-18.63 742.85-19.65 741.35-19.65L741.35-19.65Q739.6-19.65 738.5-18.45 737.4-17.25 737.4-15.5L737.4-15.5 737.4 0 727.45 0 727.45-26.4 735.6-26.4 736.25-22.45Q737.75-24.55 740.23-25.78 742.7-27 745.45-27L745.45-27Q751.4-27 753.45-22.45L753.45-22.45Q755-24.55 757.43-25.78 759.85-27 762.5-27L762.5-27ZM791.1-27Q798.35-27 802.18-23.6 806-20.2 806-13.2L806-13.2 806-11.5 786.2-11.5Q786.2-8.65 787.48-7.2 788.75-5.75 791.5-5.75L791.5-5.75Q794-5.75 795.18-6.8 796.35-7.85 796.35-9.6L796.35-9.6 806-9.6Q806-4.8 802.35-2.1 798.7 0.6 791.7 0.6L791.7 0.6Q784.35 0.6 780.3-2.83 776.25-6.25 776.25-13.2L776.25-13.2Q776.25-20 780.2-23.5 784.15-27 791.1-27L791.1-27ZM791.5-20.65Q786.8-20.65 786.25-16.2L786.25-16.2 795.95-16.2Q795.95-18.25 794.78-19.45 793.6-20.65 791.5-20.65L791.5-20.65ZM829-27Q833.6-27 835.9-24.45 838.2-21.9 838.2-17.1L838.2-17.1 838.2 0 828.25 0 828.25-15.9Q828.25-17.6 827.38-18.63 826.5-19.65 824.9-19.65L824.9-19.65Q823.05-19.65 821.9-18.45 820.75-17.25 820.75-15.5L820.75-15.5 820.75 0 810.8 0 810.8-26.4 818.95-26.4 819.6-22.4Q821.15-24.5 823.68-25.75 826.2-27 829-27L829-27ZM856.15-26.4L861.75-26.4 861.75-19.65 856.15-19.65 856.15-9.6Q856.15-7.8 856.75-6.98 857.35-6.15 858.95-6.15L858.95-6.15 861.75-6.15 861.75-0.3Q860.55 0.1 858.65 0.35 856.75 0.6 855.35 0.6L855.35 0.6Q850.95 0.6 848.58-1 846.2-2.6 846.2-6.45L846.2-6.45 846.2-19.65 842.5-19.65 842.5-26.4 846.6-26.4 848.75-34.4 856.15-34.4 856.15-26.4ZM895.55-27Q900.85-27 904.53-24.93 908.2-22.85 908.2-18.5L908.2-18.5 898.95-18.5Q898.95-19.95 897.65-20.55L897.65-20.55Q896.75-21.05 895.4-21.05L895.4-21.05Q891.8-21.05 891.8-19.35L891.8-19.35Q891.8-18.4 893.05-18 894.3-17.6 897.15-17.15L897.15-17.15Q900.65-16.65 903-15.98 905.35-15.3 907.1-13.58 908.85-11.85 908.85-8.75L908.85-8.75Q908.85-3.7 905.08-1.55 901.3 0.6 895.2 0.6L895.2 0.6Q891.7 0.6 888.6-0.38 885.5-1.35 883.55-3.4 881.6-5.45 881.6-8.6L881.6-8.6 890.85-8.6 890.85-8.4Q890.9-6.7 892.28-6.03 893.65-5.35 895.2-5.35L895.2-5.35Q899.35-5.35 899.35-7.3L899.35-7.3Q899.35-8.3 898.05-8.75 896.75-9.2 893.8-9.7L893.8-9.7Q890.25-10.3 887.98-11 885.7-11.7 884-13.38 882.3-15.05 882.3-18.05L882.3-18.05Q882.3-22.9 885.98-24.95 889.65-27 895.55-27L895.55-27ZM931.7-0.8Q929.65 4.75 926.68 7.63 923.7 10.5 918.35 10.5L918.35 10.5Q915.1 10.5 912.6 9.6L912.6 9.6 912.6 3.65 916.6 3.65Q920.35 3.65 921.05 0L921.05 0 910.55-26.4 921.25-26.4 926.3-8.85 926.65-8.85 931.3-26.4 941.1-26.4 931.7-0.8ZM956.65-27Q961.95-27 965.63-24.93 969.3-22.85 969.3-18.5L969.3-18.5 960.05-18.5Q960.05-19.95 958.75-20.55L958.75-20.55Q957.85-21.05 956.5-21.05L956.5-21.05Q952.9-21.05 952.9-19.35L952.9-19.35Q952.9-18.4 954.15-18 955.4-17.6 958.25-17.15L958.25-17.15Q961.75-16.65 964.1-15.98 966.45-15.3 968.2-13.58 969.95-11.85 969.95-8.75L969.95-8.75Q969.95-3.7 966.18-1.55 962.4 0.6 956.3 0.6L956.3 0.6Q952.8 0.6 949.7-0.38 946.6-1.35 944.65-3.4 942.7-5.45 942.7-8.6L942.7-8.6 951.95-8.6 951.95-8.4Q952-6.7 953.38-6.03 954.75-5.35 956.3-5.35L956.3-5.35Q960.45-5.35 960.45-7.3L960.45-7.3Q960.45-8.3 959.15-8.75 957.85-9.2 954.9-9.7L954.9-9.7Q951.35-10.3 949.08-11 946.8-11.7 945.1-13.38 943.4-15.05 943.4-18.05L943.4-18.05Q943.4-22.9 947.08-24.95 950.75-27 956.65-27L956.65-27ZM986.65-26.4L992.25-26.4 992.25-19.65 986.65-19.65 986.65-9.6Q986.65-7.8 987.25-6.98 987.85-6.15 989.45-6.15L989.45-6.15 992.25-6.15 992.25-0.3Q991.05 0.1 989.15 0.35 987.25 0.6 985.85 0.6L985.85 0.6Q981.45 0.6 979.08-1 976.7-2.6 976.7-6.45L976.7-6.45 976.7-19.65 973-19.65 973-26.4 977.1-26.4 979.25-34.4 986.65-34.4 986.65-26.4ZM1010.5-27Q1017.75-27 1021.58-23.6 1025.4-20.2 1025.4-13.2L1025.4-13.2 1025.4-11.5 1005.6-11.5Q1005.6-8.65 1006.88-7.2 1008.15-5.75 1010.9-5.75L1010.9-5.75Q1013.4-5.75 1014.58-6.8 1015.75-7.85 1015.75-9.6L1015.75-9.6 1025.4-9.6Q1025.4-4.8 1021.75-2.1 1018.1 0.6 1011.1 0.6L1011.1 0.6Q1003.75 0.6 999.7-2.83 995.65-6.25 995.65-13.2L995.65-13.2Q995.65-20 999.6-23.5 1003.55-27 1010.5-27L1010.5-27ZM1010.9-20.65Q1006.2-20.65 1005.65-16.2L1005.65-16.2 1015.35-16.2Q1015.35-18.25 1014.18-19.45 1013-20.65 1010.9-20.65L1010.9-20.65ZM1065.25-27Q1069.75-27 1072-24.43 1074.25-21.85 1074.25-17.1L1074.25-17.1 1074.25 0 1064.3 0 1064.3-15.9Q1064.3-17.6 1063.48-18.63 1062.65-19.65 1061.15-19.65L1061.15-19.65Q1059.4-19.65 1058.3-18.45 1057.2-17.25 1057.2-15.5L1057.2-15.5 1057.2 0 1047.25 0 1047.25-15.9Q1047.25-17.6 1046.42-18.63 1045.6-19.65 1044.1-19.65L1044.1-19.65Q1042.35-19.65 1041.25-18.45 1040.15-17.25 1040.15-15.5L1040.15-15.5 1040.15 0 1030.2 0 1030.2-26.4 1038.35-26.4 1039-22.45Q1040.5-24.55 1042.98-25.78 1045.45-27 1048.2-27L1048.2-27Q1054.15-27 1056.2-22.45L1056.2-22.45Q1057.75-24.55 1060.17-25.78 1062.6-27 1065.25-27L1065.25-27Z" opacity="1" transform="matrix(1,0,0,1,0,0)" fill="#1b2141" class="slogan-text-1" data-fill-palette-color="secondary" id="text-1"></path></svg></g></svg></g></svg></g></svg></g><g transform="matrix(1,0,0,1,76.53311999999997,0)"><svg viewBox="0 0 244.43135999999998 175.201079803943" height="175.201079803943" width="244.43135999999998"><g><svg xmlns="http://www.w3.org/2000/svg" xmlns:xlink="http://www.w3.org/1999/xlink" version="1.1" x="8" y="0" viewBox="25.319013706630393 31.071 49.36147007722591 37.85900000000001" enable-background="new 0 0 100 100" xml:space="preserve" height="175.201079803943" width="228.43135999999998" class="icon-icon-0" data-fill-palette-color="accent" id="icon-0"><path d="M73.789 58.976A6.66 6.66 0 0 0 68.038 55.658C67.051 55.658 66.08 55.893 65.189 56.319L56.476 45.403A8.6 8.6 0 0 0 58.337 41.937 8.57 8.57 0 0 0 57.474 35.387 8.66 8.66 0 0 0 49.994 31.071C48.487 31.071 46.998 31.471 45.687 32.229A8.57 8.57 0 0 0 41.664 37.469 8.57 8.57 0 0 0 42.525 44.018C42.813 44.518 43.162 44.969 43.537 45.393L34.81 56.319A6.6 6.6 0 0 0 31.962 55.659 6.66 6.66 0 0 0 26.21 58.977 6.6 6.6 0 0 0 25.548 64.012 6.58 6.58 0 0 0 28.638 68.039 6.64 6.64 0 0 0 31.952 68.93 6.66 6.66 0 0 0 37.704 65.612 6.6 6.6 0 0 0 38.366 60.577 6.6 6.6 0 0 0 37.162 58.181L45.876 47.27A8.7 8.7 0 0 0 48.499 48.186V55.841A6.7 6.7 0 0 0 46.682 56.548 6.643 6.643 0 0 0 44.253 65.612 6.66 6.66 0 0 0 50.004 68.929 6.64 6.64 0 0 0 53.317 68.039C54.851 67.153 55.949 65.723 56.408 64.011S56.632 60.511 55.745 58.976A6.65 6.65 0 0 0 51.499 55.843V48.188A8.7 8.7 0 0 0 54.128 47.27L62.84 58.184C61.209 60.254 60.9 63.193 62.296 65.612A6.66 6.66 0 0 0 68.047 68.929 6.64 6.64 0 0 0 71.36 68.039C72.894 67.153 73.992 65.723 74.451 64.011S74.676 60.511 73.789 58.976" fill="#1b2141" data-fill-palette-color="accent"></path></svg></g></svg></g><g></g></svg></g><defs></defs></svg><rect width="246.6171540939458" height="247.2" fill="none" stroke="none" visibility="hidden"></rect></g></svg></g></svg>